<svg xmlns="http://www.w3.org/2000/svg" viewBox="0 0 800 500" preserveAspectRatio="xMidYMid slice" role="img" aria-label="IL TakeCare — From complexity to clarity">
  <defs>
    <radialGradient id="iltcCardGlow" cx="78%" cy="20%" r="55%">
      <stop offset="0%" stop-color="#EC6625" stop-opacity="0.55" />
      <stop offset="100%" stop-color="#EC6625" stop-opacity="0" />
    </radialGradient>
    <linearGradient id="iltcCardCard" x1="0%" y1="0%" x2="100%" y2="100%">
      <stop offset="0%" stop-color="#EC6625" />
      <stop offset="100%" stop-color="#F5A06A" />
    </linearGradient>
  </defs>
  <rect width="800" height="500" fill="#0F0E13" />
  <circle cx="620" cy="100" r="280" fill="url(#iltcCardGlow)" />
  <rect x="100" y="120" width="180" height="320" rx="28" fill="#16161C" stroke="rgba(255,255,255,0.08)" />
  <rect x="160" y="138" width="60" height="8" rx="4" fill="rgba(255,255,255,0.15)" />
  <rect x="118" y="160" width="144" height="64" rx="14" fill="url(#iltcCardCard)" />
  <rect x="130" y="178" width="88" height="6" rx="3" fill="white" fill-opacity="0.95" />
  <rect x="130" y="194" width="56" height="5" rx="2" fill="white" fill-opacity="0.7" />
  <rect x="118" y="240" width="32" height="32" rx="9" fill="rgba(236,102,37,0.18)" />
  <rect x="156" y="240" width="32" height="32" rx="9" fill="rgba(236,102,37,0.18)" />
  <rect x="194" y="240" width="32" height="32" rx="9" fill="rgba(236,102,37,0.18)" />
  <rect x="232" y="240" width="32" height="32" rx="9" fill="rgba(236,102,37,0.18)" />
  <rect x="118" y="294" width="68" height="80" rx="12" fill="rgba(245,160,106,0.22)" />
  <rect x="194" y="294" width="68" height="80" rx="12" fill="rgba(124,126,245,0.22)" />
  <text x="340" y="175" fill="#F0F0F4" font-family="Inter, sans-serif" font-size="44" font-weight="800" letter-spacing="-1.5">IL TakeCare</text>
  <text x="340" y="220" fill="#EC6625" font-family="Inter, sans-serif" font-size="22" font-weight="700" letter-spacing="-0.5">From complexity → clarity</text>
  <text x="340" y="255" fill="rgba(240,240,244,0.55)" font-family="Geist Mono, monospace" font-size="12" letter-spacing="3">ICICI LOMBARD · FLAGSHIP APP REVAMP</text>
  <g>
    <rect x="340" y="300" width="160" height="34" rx="17" fill="rgba(255,255,255,0.04)" stroke="rgba(236,102,37,0.4)" />
    <text x="420" y="322" text-anchor="middle" fill="#F0F0F4" font-family="Geist Mono, monospace" font-size="11" font-weight="700" letter-spacing="1.5">−53.8% CALLS</text>
  </g>
  <g>
    <rect x="510" y="300" width="160" height="34" rx="17" fill="rgba(255,255,255,0.04)" stroke="rgba(236,102,37,0.4)" />
    <text x="590" y="322" text-anchor="middle" fill="#F0F0F4" font-family="Geist Mono, monospace" font-size="11" font-weight="700" letter-spacing="1.5">+328.1% USE</text>
  </g>
  <g>
    <rect x="340" y="350" width="160" height="34" rx="17" fill="rgba(255,255,255,0.04)" stroke="rgba(236,102,37,0.4)" />
    <text x="420" y="372" text-anchor="middle" fill="#F0F0F4" font-family="Geist Mono, monospace" font-size="11" font-weight="700" letter-spacing="1.5">+34.2% INSTALLS</text>
  </g>
  <g>
    <rect x="510" y="350" width="160" height="34" rx="17" fill="rgba(255,255,255,0.04)" stroke="rgba(236,102,37,0.4)" />
    <text x="590" y="372" text-anchor="middle" fill="#F0F0F4" font-family="Geist Mono, monospace" font-size="11" font-weight="700" letter-spacing="1.5">24h FEATURE TAT</text>
  </g>
</svg>
